<svg version="1" xmlns="http://www.w3.org/2000/svg" width="170.667" height="170.667" viewBox="0 0 128.000000 128.000000"><path d="M82.7 18.6c-4.3 5.8-8 11.1-8.4 11.9-.4 1.3 3.3 1.5 26.6 1.5 14.9 0 27.1-.3 27.1-.8C127.9 30.3 92.7 8 91.4 8c-.5.1-4.4 4.8-8.7 10.6zM75 33.8c0 .6 3.9 12.1 8.6 25.7 4.7 13.6 8.4 24.8 8.2 24.9-.2.2-3 1.3-6.3 2.6s-6.4 2.7-6.9 3.1c-.4.4 2.4 1.7 6.3 3S92 95.7 92 96c0 .3-9.1 4.6-20.2 9.5-11.2 4.8-20.7 9.2-21.2 9.6-1.4 1.2 4.2 2 38 5.2 1.6.2 6-4.3 17.7-17.8 8.6-9.9 15.7-18.5 15.7-19 0-.6-5.7-12-12.7-25.5L96.5 33.5l-10.7-.3c-6.1-.1-10.8.1-10.8.6z"/><path d="M35.2 62.6l.3 13.8 19.6 6.5 19.6 6.4 6.3-2.5c3.5-1.4 6.5-2.9 6.6-3.4.2-.7-48.6-33-51.8-34.2-.5-.2-.7 5.8-.6 13.4zM0 66.8c0 1.2 14.6 44.1 15.1 44.6.2.2 6.9 1.2 14.8 2.3l14.4 1.9 21.1-9.2c11.6-5.1 21.2-9.7 21.3-10.1.2-.4-18.9-7.3-42.4-15.3S1.3 66.3.8 66.2c-.4-.2-.8.1-.8.6z"/></svg>